# xmcd
#
# Track frame offsets:
#	182
#	14445
#	34220
#	56670
#	71332
#	90195
#	101470
#	121345
#	137572
#
# Disc length: 2408 seconds
#
# Revision: 0
# Processed by: cddbd v1.4PL0 Copyright (c) Steve Scherf et al.
# Submitted via: dBpowerAMP V4.0
#
DISCID=6c096609
DTITLE=Jens Krüger - Days in the field
DYEAR=1900
DGENRE=bluegrass
TTITLE0=Watch the couds roll by
TTITLE1=Indian Summer
TTITLE2=High up in the sky
TTITLE3=Dansing Daddies
TTITLE4=Wind in the wheat
TTITLE5=Stained glass
TTITLE6=Mirjam
TTITLE7=the gentle touch of falling leaves
TTITLE8=Warming fire in the morning rain
EXTD=
EXTT0=
EXTT1=
EXTT2=
EXTT3=
EXTT4=
EXTT5=
EXTT6=
EXTT7=
EXTT8=
PLAYORDER=
